HIERARCHY
ROOT hip
{
  OFFSET 0.00112043 5.09927 -9.65472
  CHANNELS 6 Xposition Yposition Zposition Zrotation Xrotation Yrotation
  JOINT abdomen
  {
    OFFSET 0 -1.186 -1.5018
    CHANNELS 3 Zrotation Xrotation Yrotation
    JOINT abdomen2
    {
      OFFSET 0 9.964 0.2134
      CHANNELS 3 Zrotation Xrotation Yrotation
      JOINT chest
      {
        OFFSET 0 13.134 -3.2573
        CHANNELS 3 Zrotation Xrotation Yrotation
        JOINT neck
        {
          OFFSET 0 20.686 -1.6905
          CHANNELS 3 Zrotation Xrotation Yrotation
          JOINT head
          {
            OFFSET 0 7.238 -0.1237
            CHANNELS 3 Zrotation Xrotation Yrotation
            End Site
            {
              OFFSET 0 0 0
            }
          }
        }
        JOINT lCollar
        {
          OFFSET 1.7069 20.075 5.0056
          CHANNELS 3 Zrotation Xrotation Yrotation
          JOINT lShldr
          {
            OFFSET 13.6458 -0.047 -4.849
            CHANNELS 3 Zrotation Xrotation Yrotation
            JOINT lForeArm
            {
              OFFSET 28.3255 -0.9759 2.2888
              CHANNELS 3 Zrotation Xrotation Yrotation
              JOINT lHand
              {
                OFFSET 22.1583 -0.53 10.8316
                CHANNELS 3 Zrotation Xrotation Yrotation
                JOINT lThumb1
                {
                  OFFSET 0.786 0.112 2.5817
                  CHANNELS 3 Zrotation Xrotation Yrotation
                  JOINT lThumb2
                  {
                    OFFSET 0.3601 -0.878 4.2331
                    CHANNELS 3 Zrotation Xrotation Yrotation
                    JOINT lThumb2_End
                    {
                      OFFSET 1.8127 -1.216 2.2227
                      CHANNELS 3 Zrotation Xrotation Yrotation
                      End Site
                      {
                        OFFSET 0.0181 -0.0122 0.0222
                      }
                    }
                  }
                }
                JOINT lCarpal1
                {
                  OFFSET 0.9571 1.114 1.7695
                  CHANNELS 3 Zrotation Xrotation Yrotation
                  JOINT lIndex1
                  {
                    OFFSET 4.1246 0.487 4.1451
                    CHANNELS 3 Zrotation Xrotation Yrotation
                    JOINT lIndex2
                    {
                      OFFSET 3.4052 -1.454 2.7682
                      CHANNELS 3 Zrotation Xrotation Yrotation
                      JOINT lIndex2_End
                      {
                        OFFSET 1.4531 -1.795 1.2713
                        CHANNELS 3 Zrotation Xrotation Yrotation
                        End Site
                        {
                          OFFSET 0.0145 -0.0179 0.0127
                        }
                      }
                    }
                  }
                  JOINT lMid1
                  {
                    OFFSET 5.6954 0.21 2.1184
                    CHANNELS 3 Zrotation Xrotation Yrotation
                    JOINT lMid2
                    {
                      OFFSET 3.9766 -1.54 2.3863
                      CHANNELS 3 Zrotation Xrotation Yrotation
                      JOINT lMid2_End
                      {
                        OFFSET 1.4042 -1.926 1.125
                        CHANNELS 3 Zrotation Xrotation Yrotation
                        End Site
                        {
                          OFFSET 0.014 -0.0193 0.0113
                        }
                      }
                    }
                  }
                }
                JOINT lCarpal2
                {
                  OFFSET 2.0956 0.66 -0.3894
                  CHANNELS 3 Zrotation Xrotation Yrotation
                  JOINT lRing1
                  {
                    OFFSET 5.0395 -0.09 2.4971
                    CHANNELS 3 Zrotation Xrotation Yrotation
                    JOINT lRing2
                    {
                      OFFSET 3.7921 -1.552 1.4806
                      CHANNELS 3 Zrotation Xrotation Yrotation
                      JOINT lRing2_End
                      {
                        OFFSET 1.4655 -1.808 0.9609
                        CHANNELS 3 Zrotation Xrotation Yrotation
                        End Site
                        {
                          OFFSET 0.0147 -0.0181 0.0096
                        }
                      }
                    }
                  }
                  JOINT lPinky1
                  {
                    OFFSET 4.9141 -1.269 0.3591
                    CHANNELS 3 Zrotation Xrotation Yrotation
                    JOINT lPinky2
                    {
                      OFFSET 3.1477 -1.685 0.8462
                      CHANNELS 3 Zrotation Xrotation Yrotation
                      JOINT lPinky2_End
                      {
                        OFFSET 0.8055 -1.585 0.7955
                        CHANNELS 3 Zrotation Xrotation Yrotation
                        End Site
                        {
                          OFFSET 0.0081 -0.0158 0.008
                        }
                      }
                    }
                  }
                }
              }
            }
          }
        }
        JOINT rCollar
        {
          OFFSET -1.7069 20.075 5.0056
          CHANNELS 3 Zrotation Xrotation Yrotation
          JOINT rShldr
          {
            OFFSET -13.6458 -0.047 -4.849
            CHANNELS 3 Zrotation Xrotation Yrotation
            JOINT rForeArm
            {
              OFFSET -28.3255 -0.9759 2.2888
              CHANNELS 3 Zrotation Xrotation Yrotation
              JOINT rHand
              {
                OFFSET -22.1583 -0.53 10.8316
                CHANNELS 3 Zrotation Xrotation Yrotation
                JOINT rThumb1
                {
                  OFFSET -0.786 0.112 2.5817
                  CHANNELS 3 Zrotation Xrotation Yrotation
                  JOINT rThumb2
                  {
                    OFFSET -0.3601 -0.878 4.2331
                    CHANNELS 3 Zrotation Xrotation Yrotation
                    JOINT rThumb2_End
                    {
                      OFFSET -1.8127 -1.216 2.2227
                      CHANNELS 3 Zrotation Xrotation Yrotation
                      End Site
                      {
                        OFFSET -0.0181 -0.0122 0.0222
                      }
                    }
                  }
                }
                JOINT rCarpal1
                {
                  OFFSET -0.9571 1.114 1.7695
                  CHANNELS 3 Zrotation Xrotation Yrotation
                  JOINT rIndex1
                  {
                    OFFSET -4.1246 0.487 4.1451
                    CHANNELS 3 Zrotation Xrotation Yrotation
                    JOINT rIndex2
                    {
                      OFFSET -3.4052 -1.454 2.7682
                      CHANNELS 3 Zrotation Xrotation Yrotation
                      JOINT rIndex2_End
                      {
                        OFFSET -1.4531 -1.795 1.2713
                        CHANNELS 3 Zrotation Xrotation Yrotation
                        End Site
                        {
                          OFFSET -0.0145 -0.018 0.0127
                        }
                      }
                    }
                  }
                  JOINT rMid1
                  {
                    OFFSET -5.6954 0.21 2.1184
                    CHANNELS 3 Zrotation Xrotation Yrotation
                    JOINT rMid2
                    {
                      OFFSET -3.9766 -1.54 2.3863
                      CHANNELS 3 Zrotation Xrotation Yrotation
                      JOINT rMid2_End
                      {
                        OFFSET -1.4042 -1.926 1.125
                        CHANNELS 3 Zrotation Xrotation Yrotation
                        End Site
                        {
                          OFFSET -0.014 -0.0193 0.0113
                        }
                      }
                    }
                  }
                }
                JOINT rCarpal2
                {
                  OFFSET -2.0956 0.66 -0.3894
                  CHANNELS 3 Zrotation Xrotation Yrotation
                  JOINT rRing1
                  {
                    OFFSET -5.0395 -0.09 2.4971
                    CHANNELS 3 Zrotation Xrotation Yrotation
                    JOINT rRing2
                    {
                      OFFSET -3.7921 -1.552 1.4806
                      CHANNELS 3 Zrotation Xrotation Yrotation
                      JOINT rRing2_End
                      {
                        OFFSET -1.4655 -1.808 0.9609
                        CHANNELS 3 Zrotation Xrotation Yrotation
                        End Site
                        {
                          OFFSET -0.0147 -0.0181 0.0096
                        }
                      }
                    }
                  }
                  JOINT rPinky1
                  {
                    OFFSET -4.9141 -1.269 0.3592
                    CHANNELS 3 Zrotation Xrotation Yrotation
                    JOINT rPinky2
                    {
                      OFFSET -3.1477 -1.685 0.8462
                      CHANNELS 3 Zrotation Xrotation Yrotation
                      JOINT rPinky2_End
                      {
                        OFFSET -0.8055 -1.585 0.7955
                        CHANNELS 3 Zrotation Xrotation Yrotation
                        End Site
                        {
                          OFFSET -0.0081 -0.0158 0.008
                        }
                      }
                    }
                  }
                }
              }
            }
          }
        }
      }
    }
  }
  JOINT lThigh
  {
    OFFSET 8.367 -8.2066 0.5982
    CHANNELS 3 Zrotation Xrotation Yrotation
    JOINT lShin
    {
      OFFSET 2.1923 -43.463 -0.4932
      CHANNELS 3 Zrotation Xrotation Yrotation
      JOINT lFoot
      {
        OFFSET 0.7333 -45.8593 -2.6451
        CHANNELS 3 Zrotation Xrotation Yrotation
        End Site
        {
          OFFSET 2.6618 -4.2699 12.3931
        }
      }
    }
  }
  JOINT rThigh
  {
    OFFSET -8.367 -8.2066 0.5982
    CHANNELS 3 Zrotation Xrotation Yrotation
    JOINT rShin
    {
      OFFSET -2.1923 -43.463 -0.4931
      CHANNELS 3 Zrotation Xrotation Yrotation
      JOINT rFoot
      {
        OFFSET -0.7333 -45.8593 -2.6451
        CHANNELS 3 Zrotation Xrotation Yrotation
        End Site
        {
          OFFSET -2.6618 -4.2699 12.3931
        }
      }
    }
  }
}
MOTION
Frames:	6
Frame Time:	0.0333333
0 91.7903 2.51682 0 0 -0 0 0 -0 0 0 -0 0 0 -0 0 0 -0 0 0 -0 0 0 -0 1.66051 0.0835086 5.75766 -0.0175111 0.895433 15.7816 7.95139e-016 -1.98785e-016 -0 5.46658e-016 -3.97569e-016 -0 5.96354e-016 0 -0 3.97569e-016 1.98785e-016 9.54166e-015 1.49089e-016 -3.97569e-016 -0 6.4605e-016 0 3.18055e-015 5.96354e-016 0 3.18055e-015 8.94531e-016 -1.98785e-016 6.36111e-015 6.4605e-016 0 3.18055e-015 5.96354e-016 0 3.18055e-015 8.94531e-016 -1.98785e-016 6.36111e-015 1.49089e-016 -3.97569e-016 -0 6.4605e-016 0 3.18055e-015 5.96354e-016 0 3.18055e-015 8.94531e-016 -1.98785e-016 6.36111e-015 6.4605e-016 0 3.18055e-015 5.96354e-016 0 3.18055e-015 8.94531e-016 -1.98785e-016 6.36111e-015 0 0 -0 -1.4496 0.0636048 -5.0245 -1.74811 1.20616 -16.8394 -1.19271e-015 1.98785e-016 -3.18055e-015 -3.97569e-016 1.98785e-016 -3.18055e-015 -2.98177e-016 1.98785e-016 -3.18055e-015 -2.98177e-016 3.97569e-016 -0 4.96962e-016 0 -6.36111e-015 -9.93923e-017 3.97569e-016 -0 -8.94531e-016 5.96354e-016 -0 -3.97569e-016 3.97569e-016 -0 -9.93923e-017 3.97569e-016 -0 -8.94531e-016 5.96354e-016 -0 -3.97569e-016 3.97569e-016 -0 4.96962e-016 0 -6.36111e-015 -9.93923e-017 3.97569e-016 -0 -8.94531e-016 5.96354e-016 -0 -3.97569e-016 3.97569e-016 -0 -9.93923e-017 3.97569e-016 -0 -8.94531e-016 5.96354e-016 -0 -3.97569e-016 3.97569e-016 -0 -4.66111 -0.998717 0.12318 0.00986924 1.54847 0.176523 4.65186 -0.572283 -0.254274 4.66111 -0.998765 -0.123176 -0.00986867 1.54869 -0.176537 -4.65186 -0.572453 0.25427 
-0.611676 1.42903 -11.2743 -180 -89.9981 -180 -0.11204 8.50988 -0.123997 -0.208732 17.02 -0.234907 -0.208732 17.02 -0.234907 7.63879e-006 17.9992 -2.76432e-006 -9.05311e-008 8.99857 5.21514e-008 -19.6866 -1.26714 2.83134 -74.1861 -5.55673 -16.8751 11.7363 43.6408 -33.4613 -35.029 32.026 23.0285 -9.54166e-015 4.77083e-015 2.38542e-015 -2.86585e-006 -2.85805e-006 7.28291e-007 2.09567e-007 3.21066e-006 -4.73178e-006 -9.54166e-015 4.77083e-015 2.38542e-015 -3.18055e-015 7.15625e-015 1.43125e-014 -2.86585e-006 -2.85805e-006 7.28291e-007 2.09567e-007 3.21066e-006 -4.73178e-006 -3.18055e-015 7.15625e-015 1.43125e-014 -2.86585e-006 -2.85805e-006 7.28291e-007 2.09567e-007 3.21066e-006 -4.73178e-006 -9.54166e-015 4.77083e-015 2.38542e-015 -3.18055e-015 7.15625e-015 1.43125e-014 -2.86585e-006 -2.85805e-006 7.28291e-007 2.09567e-007 3.21066e-006 -4.73178e-006 -3.18055e-015 7.15625e-015 1.43125e-014 -2.86585e-006 -2.85805e-006 7.28291e-007 2.09567e-007 3.21066e-006 -4.73178e-006 -0.60742 0.43324 -8.61063 75.8927 1.42001 -35.2984 -33.9935 2.76049 59.9731 -3.12827 24.2761 3.39522 -1.38184e-006 1.34055e-006 3.78827e-007 -3.18055e-015 -1.98785e-015 -1.27222e-014 2.38542e-015 1.59028e-015 -9.54166e-015 -2.38542e-015 1.59028e-015 -0 -1.38184e-006 1.34055e-006 3.78827e-007 -1.59028e-015 7.55382e-015 -0 -7.95139e-016 1.19271e-015 -9.54166e-015 -1.38184e-006 1.34055e-006 3.78827e-007 -1.59028e-015 7.55382e-015 -0 -7.95139e-016 1.19271e-015 -9.54166e-015 -2.38542e-015 1.59028e-015 -0 -1.38184e-006 1.34055e-006 3.78827e-007 -1.59028e-015 7.55382e-015 -0 -7.95139e-016 1.19271e-015 -9.54166e-015 -1.38184e-006 1.34055e-006 3.78827e-007 -1.59028e-015 7.55382e-015 -0 -7.95139e-016 1.19271e-015 -9.54166e-015 21.929 1.24363 1.63525 -1.90718 4.78248 1.29128 12.4406 16.7391 -0.497085 -31.6154 -35.4073 -25.7996 -50.554 77.9086 45.4608 -12.7007 24.0575 -0.681167 
-0.611676 1.42903 -11.2743 -180 -89.9981 -180 -0.112748 8.60973 -0.123383 -0.210118 17.2197 -0.23343 -0.210118 17.2197 -0.23343 6.43541e-006 17.4516 -2.33338e-006 -5.71495e-008 8.91287 -1.20187e-007 -19.1104 -1.78876 3.12763 -74.5331 -5.3531 -16.6768 11.6589 43.7014 -34.3333 -35.5313 31.6691 23.8936 -1.89786e-006 1.55079e-006 6.98107e-007 -3.31577e-006 1.74665e-006 1.97873e-006 2.10396e-006 1.66575e-006 -5.41605e-006 3.18055e-015 -1.98785e-015 3.18055e-015 -1.89786e-006 1.55079e-006 6.98107e-007 -3.31577e-006 1.74665e-006 1.97873e-006 2.10396e-006 1.66575e-006 -5.41605e-006 -1.89786e-006 1.55079e-006 6.98107e-007 -3.31577e-006 1.74665e-006 1.97873e-006 2.10396e-006 1.66575e-006 -5.41605e-006 3.18055e-015 -1.98785e-015 3.18055e-015 -1.89786e-006 1.55079e-006 6.98107e-007 -3.31577e-006 1.74665e-006 1.97873e-006 2.10396e-006 1.66575e-006 -5.41605e-006 -1.89786e-006 1.55079e-006 6.98107e-007 -3.31577e-006 1.74665e-006 1.97873e-006 2.10396e-006 1.66575e-006 -5.41605e-006 -0.60742 0.433247 -8.61063 75.8927 1.42001 -35.2984 -33.9935 2.76049 59.9731 -3.26087 24.0937 3.47377 2.2397e-006 6.88846e-007 -5.79622e-007 -1.59028e-015 -2.78299e-015 -3.18055e-015 2.2397e-006 6.88846e-007 -5.79622e-007 0 0 -3.18055e-015 2.2397e-006 6.88846e-007 -5.79622e-007 3.97569e-015 -2.78299e-015 -0 2.2397e-006 6.88846e-007 -5.79622e-007 2.2397e-006 6.88846e-007 -5.79622e-007 3.97569e-015 -2.78299e-015 -0 2.2397e-006 6.88846e-007 -5.79622e-007 0 0 -3.18055e-015 2.2397e-006 6.88846e-007 -5.79622e-007 3.97569e-015 -2.78299e-015 -0 2.2397e-006 6.88846e-007 -5.79622e-007 2.2397e-006 6.88846e-007 -5.79622e-007 3.97569e-015 -2.78299e-015 -0 2.2397e-006 6.88846e-007 -5.79622e-007 21.929 1.24363 1.63525 -1.90718 4.78249 1.29128 12.4406 16.7391 -0.497082 -31.6154 -35.4073 -25.7996 -50.554 77.9086 45.4608 -12.7007 24.0576 -0.681176 
-0.611676 1.42903 -11.2743 -180 -89.9981 -180 -0.113456 8.70961 -0.122765 -0.211511 17.4195 -0.231942 -0.211511 17.4195 -0.231942 -3.34779e-007 16.9037 -1.08532e-006 1.40007e-008 8.82715 -2.53896e-007 -18.5309 -2.30781 3.4295 -74.8808 -5.15063 -16.4773 11.5827 43.7629 -35.2069 -36.0258 31.3056 24.7523 7.69606e-007 3.19222e-007 -1.02933e-006 3.18055e-015 -5.1684e-015 -5.56597e-015 6.31523e-007 -5.17703e-007 -2.33482e-007 -6.36111e-015 1.59028e-015 -2.38542e-015 7.69606e-007 3.19222e-007 -1.02933e-006 3.18055e-015 -3.57812e-015 -5.56597e-015 6.31523e-007 -5.17703e-007 -2.33482e-007 7.69606e-007 3.19222e-007 -1.02933e-006 3.18055e-015 -3.57812e-015 -5.56597e-015 6.31523e-007 -5.17703e-007 -2.33482e-007 -6.36111e-015 1.59028e-015 -2.38542e-015 7.69606e-007 3.19222e-007 -1.02933e-006 3.18055e-015 -3.57812e-015 -5.56597e-015 6.31523e-007 -5.17703e-007 -2.33482e-007 7.69606e-007 3.19222e-007 -1.02933e-006 3.18055e-015 -3.57812e-015 -5.56597e-015 6.31523e-007 -5.17703e-007 -2.33482e-007 -0.60742 0.433255 -8.61063 75.8927 1.42 -35.2984 -33.9935 2.76048 59.9731 -3.39304 23.9111 3.55175 -2.38542e-015 5.96354e-015 -0 3.70394e-006 -8.18401e-008 -8.31606e-007 2.38542e-015 -5.1684e-015 -0 -2.38542e-015 3.18055e-015 -0 -1.32417e-030 5.96354e-015 1.27222e-014 3.70394e-006 -8.18401e-008 -8.31606e-007 1.59028e-015 2.38542e-015 -3.18055e-015 -1.32417e-030 5.96354e-015 1.27222e-014 3.70394e-006 -8.18401e-008 -8.31606e-007 1.59028e-015 2.38542e-015 -3.18055e-015 -2.38542e-015 3.18055e-015 -0 -1.32417e-030 5.96354e-015 1.27222e-014 3.70394e-006 -8.18401e-008 -8.31606e-007 1.59028e-015 2.38542e-015 -3.18055e-015 -1.32417e-030 5.96354e-015 1.27222e-014 3.70394e-006 -8.18401e-008 -8.31606e-007 1.59028e-015 2.38542e-015 -3.18055e-015 21.929 1.24363 1.63525 -1.90718 4.78249 1.29128 12.4406 16.7391 -0.497082 -31.6154 -35.4073 -25.7996 -50.554 77.9086 45.4608 -12.7007 24.0576 -0.681176 
-0.611676 1.42903 -11.2743 -180 -89.9981 -180 -0.114166 8.80951 -0.122144 -0.212911 17.6193 -0.230443 -0.212911 17.6193 -0.230443 2.71951e-006 16.3554 -1.65851e-006 -2.49116e-008 8.74143 2.3857e-007 -17.948 -2.82415 3.73696 -75.2292 -4.94933 -16.2766 11.5077 43.8253 -36.0821 -36.5122 30.9355 25.6046 -1.19609e-006 -1.36781e-006 -2.14005e-006 -1.38457e-006 2.0081e-007 1.24466e-006 6.30417e-007 -5.18493e-007 -2.34228e-007 1.27222e-014 -2.38542e-015 1.59028e-015 -1.19609e-006 -1.36781e-006 -2.14005e-006 -1.38457e-006 2.0081e-007 1.24466e-006 6.30417e-007 -5.18493e-007 -2.34228e-007 -1.19609e-006 -1.36781e-006 -2.14005e-006 -1.38457e-006 2.0081e-007 1.24466e-006 6.30417e-007 -5.18493e-007 -2.34228e-007 1.27222e-014 -2.38542e-015 1.59028e-015 -1.19609e-006 -1.36781e-006 -2.14005e-006 -1.38457e-006 2.0081e-007 1.24466e-006 6.30417e-007 -5.18493e-007 -2.34228e-007 -1.19609e-006 -1.36781e-006 -2.14005e-006 -1.38457e-006 2.0081e-007 1.24466e-006 6.30417e-007 -5.18493e-007 -2.34228e-007 -0.60742 0.433256 -8.61063 75.8927 1.42 -35.2984 -33.9935 2.7605 59.9731 -3.52474 23.7283 3.62917 -3.70388e-006 7.70791e-008 8.28021e-007 -7.71608e-007 -1.46614e-006 3.29692e-007 -2.81375e-006 -9.81495e-007 -1.18833e-005 -0 -2.78299e-015 -0 -3.70388e-006 7.70791e-008 8.28021e-007 -7.71608e-007 -1.46614e-006 3.29692e-007 -2.81375e-006 -9.81495e-007 -1.18833e-005 -3.70388e-006 7.70791e-008 8.28021e-007 -7.71608e-007 -1.46614e-006 3.29692e-007 -2.81375e-006 -9.81495e-007 -1.18833e-005 -0 -2.78299e-015 -0 -3.70388e-006 7.70791e-008 8.28021e-007 -7.71608e-007 -1.46614e-006 3.29692e-007 -2.81375e-006 -9.81495e-007 -1.18833e-005 -3.70388e-006 7.70791e-008 8.28021e-007 -7.71608e-007 -1.46614e-006 3.29692e-007 -2.81375e-006 -9.81495e-007 -1.18833e-005 21.929 1.24363 1.63525 -1.90718 4.78249 1.29128 12.4406 16.7391 -0.497082 -31.6154 -35.4073 -25.7996 -50.554 77.9086 45.4608 -12.7007 24.0576 -0.681176 
-0.611676 1.42903 -11.2743 -180 -89.9981 -180 -0.114876 8.90946 -0.121519 -0.214317 17.8191 -0.228934 -0.214317 17.8191 -0.228933 6.10152e-006 15.8051 -2.22946e-006 -3.33579e-008 8.65571 -7.0908e-008 -17.3617 -3.33765 4.05001 -75.5782 -4.74917 -16.0746 11.4338 43.8885 -36.9588 -36.9907 30.5591 26.4505 6.29302e-007 -5.19298e-007 -2.34941e-007 -6.29302e-007 5.19298e-007 2.34941e-007 6.29302e-007 -5.19298e-007 -2.34941e-007 -1.54487e-031 2.78299e-015 3.18055e-015 6.29302e-007 -5.19298e-007 -2.34941e-007 -6.29302e-007 5.19298e-007 2.34941e-007 6.29302e-007 -5.19298e-007 -2.34941e-007 6.29302e-007 -5.19298e-007 -2.34941e-007 -6.29302e-007 5.19298e-007 2.34941e-007 6.29302e-007 -5.19298e-007 -2.34941e-007 -1.54487e-031 2.78299e-015 3.18055e-015 6.29302e-007 -5.19298e-007 -2.34941e-007 -6.29302e-007 5.19298e-007 2.34941e-007 6.29302e-007 -5.19298e-007 -2.34941e-007 6.29302e-007 -5.19298e-007 -2.34941e-007 -6.29302e-007 5.19298e-007 2.34941e-007 6.29302e-007 -5.19298e-007 -2.34941e-007 -0.607421 0.433253 -8.61064 75.8927 1.42 -35.2984 -33.9935 2.76051 59.9731 -3.656 23.5453 3.70603 3.97569e-016 6.36111e-015 3.18055e-015 -3.5481e-007 -4.50802e-007 -6.2588e-006 -1.98785e-015 3.57812e-015 -6.36111e-015 3.97569e-016 5.96354e-015 3.18055e-015 -1.98785e-015 -5.56597e-015 1.27222e-014 -3.5481e-007 -4.50802e-007 -6.2588e-006 -4.37326e-015 4.77083e-015 -6.36111e-015 -1.98785e-015 -5.56597e-015 1.27222e-014 -3.5481e-007 -4.50802e-007 -6.2588e-006 -4.37326e-015 4.77083e-015 -6.36111e-015 3.97569e-016 5.96354e-015 3.18055e-015 -1.98785e-015 -5.56597e-015 1.27222e-014 -3.5481e-007 -4.50802e-007 -6.2588e-006 -4.37326e-015 4.77083e-015 -6.36111e-015 -1.98785e-015 -5.56597e-015 1.27222e-014 -3.5481e-007 -4.50802e-007 -6.2588e-006 -4.37326e-015 4.77083e-015 -6.36111e-015 21.929 1.24363 1.63525 -1.90718 4.78249 1.29128 12.4406 16.7391 -0.497082 -31.6154 -35.4073 -25.7996 -50.554 77.9086 45.4608 -12.7007 24.0576 -0.681176 
